<svg xmlns="http://www.w3.org/2000/svg" viewBox="0 0 1280 300" width="1280" height="300" role="img" aria-label="GitHub stats for AkshitIreddy"><defs><filter id="ng" x="-40%" y="-40%" width="180%" height="180%"><feGaussianBlur stdDeviation="2.4" result="b"/><feMerge><feMergeNode in="b"/><feMergeNode in="SourceGraphic"/></feMerge></filter></defs><g filter="url(#ng)"><polygon points="160.0,49.0 164.1,60.3 176.2,60.7 166.7,68.2 170.0,79.8 160.0,73.0 150.0,79.8 153.3,68.2 143.8,60.7 155.9,60.3" fill="#ff5edb"/></g><text x="160.0" y="150" text-anchor="middle" font-family="'Segoe UI',system-ui,-apple-system,Helvetica,Arial,sans-serif" font-size="46" font-weight="800" fill="#ff4da6" filter="url(#ng)">1,270</text><text x="160.0" y="182" text-anchor="middle" font-family="'Segoe UI',system-ui,-apple-system,Helvetica,Arial,sans-serif" font-size="16" font-weight="600" letter-spacing="2.5" fill="#8b949e">STARS</text><g filter="url(#ng)"><g stroke="#b45cff" stroke-width="3" stroke-linejoin="round" stroke-linecap="round" fill="none"><path d="M466.0 50 h20 a4 4 0 0 1 4 4 v28 h-20 a4 4 0 0 0 -4 4 z"/><line x1="466.0" y1="82" x2="466.0" y2="50"/></g></g><text x="480.0" y="150" text-anchor="middle" font-family="'Segoe UI',system-ui,-apple-system,Helvetica,Arial,sans-serif" font-size="46" font-weight="800" fill="#ff4da6" filter="url(#ng)">19</text><text x="480.0" y="182" text-anchor="middle" font-family="'Segoe UI',system-ui,-apple-system,Helvetica,Arial,sans-serif" font-size="16" font-weight="600" letter-spacing="2.5" fill="#8b949e">REPOS</text><g filter="url(#ng)"><g stroke="#ff2e97" stroke-width="3" stroke-linecap="round" fill="none"><line x1="780.0" y1="66" x2="793.0" y2="66"/><line x1="807.0" y1="66" x2="820.0" y2="66"/><circle cx="800.0" cy="66" r="7"/></g></g><text x="800.0" y="150" text-anchor="middle" font-family="'Segoe UI',system-ui,-apple-system,Helvetica,Arial,sans-serif" font-size="46" font-weight="800" fill="#ff4da6" filter="url(#ng)">765</text><text x="800.0" y="182" text-anchor="middle" font-family="'Segoe UI',system-ui,-apple-system,Helvetica,Arial,sans-serif" font-size="16" font-weight="600" letter-spacing="2.5" fill="#8b949e">COMMITS</text><g filter="url(#ng)"><g stroke="#4f9dff" stroke-width="3" fill="#4f9dff" stroke-linecap="round"><circle cx="1107.0" cy="53" r="4.5"/><circle cx="1133.0" cy="53" r="4.5"/><circle cx="1120.0" cy="80" r="4.5"/><path fill="none" d="M1107.0 57 v4 a6 6 0 0 0 6 6 h14 a6 6 0 0 0 6 -6 v-4 M1120.0 68 v8"/></g></g><text x="1120.0" y="150" text-anchor="middle" font-family="'Segoe UI',system-ui,-apple-system,Helvetica,Arial,sans-serif" font-size="46" font-weight="800" fill="#ff4da6" filter="url(#ng)">181</text><text x="1120.0" y="182" text-anchor="middle" font-family="'Segoe UI',system-ui,-apple-system,Helvetica,Arial,sans-serif" font-size="16" font-weight="600" letter-spacing="2.5" fill="#8b949e">FORKS</text><g><rect x="160.0" y="214" width="327.9" height="16" rx="4" fill="#ff5edb"/><rect x="489.9" y="214" width="314.5" height="16" rx="4" fill="#22d3ee"/><rect x="806.5" y="214" width="193.9" height="16" rx="4" fill="#b45cff"/><rect x="1002.3" y="214" width="50.1" height="16" rx="4" fill="#ff2e97"/><rect x="1054.4" y="214" width="32.7" height="16" rx="4" fill="#4f9dff"/><rect x="1089.1" y="214" width="28.9" height="16" rx="4" fill="#7c5cff"/></g><circle cx="261.0" cy="270" r="5" fill="#ff5edb"/><text x="272.0" y="275" font-family="'Segoe UI',system-ui,sans-serif" font-size="15" fill="#8b949e">TypeScript 34%</text><circle cx="410.0" cy="270" r="5" fill="#22d3ee"/><text x="421.0" y="275" font-family="'Segoe UI',system-ui,sans-serif" font-size="15" fill="#8b949e">Python 33%</text><circle cx="525.0" cy="270" r="5" fill="#b45cff"/><text x="536.0" y="275" font-family="'Segoe UI',system-ui,sans-serif" font-size="15" fill="#8b949e">Rust 20%</text><circle cx="623.0" cy="270" r="5" fill="#ff2e97"/><text x="634.0" y="275" font-family="'Segoe UI',system-ui,sans-serif" font-size="15" fill="#8b949e">CSS 5%</text><circle cx="712.5" cy="270" r="5" fill="#4f9dff"/><text x="723.5" y="275" font-family="'Segoe UI',system-ui,sans-serif" font-size="15" fill="#8b949e">Jupyter Notebook 4%</text><circle cx="912.5" cy="270" r="5" fill="#7c5cff"/><text x="923.5" y="275" font-family="'Segoe UI',system-ui,sans-serif" font-size="15" fill="#8b949e">Other 3%</text></svg>
