<svg xmlns="http://www.w3.org/2000/svg" viewBox="0 0 1280 300" width="1280" height="300" role="img" aria-label="GitHub stats for AkshitIreddy"><defs><filter id="ng" x="-40%" y="-40%" width="180%" height="180%"><feGaussianBlur stdDeviation="2.4" result="b"/><feMerge><feMergeNode in="b"/><feMergeNode in="SourceGraphic"/></feMerge></filter></defs><g filter="url(#ng)"><polygon points="160.0,49.0 164.1,60.3 176.2,60.7 166.7,68.2 170.0,79.8 160.0,73.0 150.0,79.8 153.3,68.2 143.8,60.7 155.9,60.3" fill="#ff5edb"/></g><text x="160" y="150" text-anchor="middle" font-family="'Segoe UI',system-ui,-apple-system,Helvetica,Arial,sans-serif" font-size="46" font-weight="800" fill="#ff4da6" filter="url(#ng)">1,268</text><text x="160" y="182" text-anchor="middle" font-family="'Segoe UI',system-ui,-apple-system,Helvetica,Arial,sans-serif" font-size="16" font-weight="600" letter-spacing="2.5" fill="#8b949e">STARS</text><g filter="url(#ng)"><g stroke="#22d3ee" stroke-width="3" fill="none" stroke-linecap="round"><circle cx="400" cy="57" r="7"/><path d="M387 82 a13 12 0 0 1 26 0"/></g></g><text x="400" y="150" text-anchor="middle" font-family="'Segoe UI',system-ui,-apple-system,Helvetica,Arial,sans-serif" font-size="46" font-weight="800" fill="#ff4da6" filter="url(#ng)">122</text><text x="400" y="182" text-anchor="middle" font-family="'Segoe UI',system-ui,-apple-system,Helvetica,Arial,sans-serif" font-size="16" font-weight="600" letter-spacing="2.5" fill="#8b949e">FOLLOWERS</text><g filter="url(#ng)"><g stroke="#b45cff" stroke-width="3" stroke-linejoin="round" stroke-linecap="round" fill="none"><path d="M626 50 h20 a4 4 0 0 1 4 4 v28 h-20 a4 4 0 0 0 -4 4 z"/><line x1="626" y1="82" x2="626" y2="50"/></g></g><text x="640" y="150" text-anchor="middle" font-family="'Segoe UI',system-ui,-apple-system,Helvetica,Arial,sans-serif" font-size="46" font-weight="800" fill="#ff4da6" filter="url(#ng)">17</text><text x="640" y="182" text-anchor="middle" font-family="'Segoe UI',system-ui,-apple-system,Helvetica,Arial,sans-serif" font-size="16" font-weight="600" letter-spacing="2.5" fill="#8b949e">REPOS</text><g filter="url(#ng)"><g stroke="#ff2e97" stroke-width="3" stroke-linecap="round" fill="none"><line x1="860" y1="66" x2="873" y2="66"/><line x1="887" y1="66" x2="900" y2="66"/><circle cx="880" cy="66" r="7"/></g></g><text x="880" y="150" text-anchor="middle" font-family="'Segoe UI',system-ui,-apple-system,Helvetica,Arial,sans-serif" font-size="46" font-weight="800" fill="#ff4da6" filter="url(#ng)">623</text><text x="880" y="182" text-anchor="middle" font-family="'Segoe UI',system-ui,-apple-system,Helvetica,Arial,sans-serif" font-size="16" font-weight="600" letter-spacing="2.5" fill="#8b949e">COMMITS</text><g filter="url(#ng)"><g stroke="#4f9dff" stroke-width="3" fill="#4f9dff" stroke-linecap="round"><circle cx="1107" cy="53" r="4.5"/><circle cx="1133" cy="53" r="4.5"/><circle cx="1120" cy="80" r="4.5"/><path fill="none" d="M1107 57 v4 a6 6 0 0 0 6 6 h14 a6 6 0 0 0 6 -6 v-4 M1120 68 v8"/></g></g><text x="1120" y="150" text-anchor="middle" font-family="'Segoe UI',system-ui,-apple-system,Helvetica,Arial,sans-serif" font-size="46" font-weight="800" fill="#ff4da6" filter="url(#ng)">181</text><text x="1120" y="182" text-anchor="middle" font-family="'Segoe UI',system-ui,-apple-system,Helvetica,Arial,sans-serif" font-size="16" font-weight="600" letter-spacing="2.5" fill="#8b949e">FORKS</text><g><rect x="160.0" y="214" width="351.2" height="16" rx="4" fill="#ff5edb"/><rect x="513.2" y="214" width="304.7" height="16" rx="4" fill="#22d3ee"/><rect x="819.9" y="214" width="167.0" height="16" rx="4" fill="#b45cff"/><rect x="988.9" y="214" width="55.2" height="16" rx="4" fill="#ff2e97"/><rect x="1046.1" y="214" width="40.0" height="16" rx="4" fill="#4f9dff"/><rect x="1088.2" y="214" width="29.8" height="16" rx="4" fill="#7c5cff"/></g><circle cx="261.0" cy="270" r="5" fill="#ff5edb"/><text x="272.0" y="275" font-family="'Segoe UI',system-ui,sans-serif" font-size="15" fill="#8b949e">Python 37%</text><circle cx="376.0" cy="270" r="5" fill="#22d3ee"/><text x="387.0" y="275" font-family="'Segoe UI',system-ui,sans-serif" font-size="15" fill="#8b949e">TypeScript 32%</text><circle cx="525.0" cy="270" r="5" fill="#b45cff"/><text x="536.0" y="275" font-family="'Segoe UI',system-ui,sans-serif" font-size="15" fill="#8b949e">Rust 18%</text><circle cx="623.0" cy="270" r="5" fill="#ff2e97"/><text x="634.0" y="275" font-family="'Segoe UI',system-ui,sans-serif" font-size="15" fill="#8b949e">CSS 6%</text><circle cx="712.5" cy="270" r="5" fill="#4f9dff"/><text x="723.5" y="275" font-family="'Segoe UI',system-ui,sans-serif" font-size="15" fill="#8b949e">Jupyter Notebook 4%</text><circle cx="912.5" cy="270" r="5" fill="#7c5cff"/><text x="923.5" y="275" font-family="'Segoe UI',system-ui,sans-serif" font-size="15" fill="#8b949e">Other 3%</text></svg>
