<svg xmlns="http://www.w3.org/2000/svg" viewBox="0 0 1280 190" width="1280" height="190" role="img" aria-label="GitHub stats for AkshitIreddy"><defs><filter id="ng" x="-40%" y="-40%" width="180%" height="180%"><feGaussianBlur stdDeviation="2.4" result="b"/><feMerge><feMergeNode in="b"/><feMergeNode in="SourceGraphic"/></feMerge></filter></defs><g filter="url(#ng)"><polygon points="160.0,37.0 164.1,48.3 176.2,48.7 166.7,56.2 170.0,67.8 160.0,61.0 150.0,67.8 153.3,56.2 143.8,48.7 155.9,48.3" fill="#ff5edb"/></g><text x="160.0" y="132" text-anchor="middle" font-family="'Segoe UI',system-ui,-apple-system,Helvetica,Arial,sans-serif" font-size="46" font-weight="800" fill="#ff4da6" filter="url(#ng)">1,279</text><text x="160.0" y="164" text-anchor="middle" font-family="'Segoe UI',system-ui,-apple-system,Helvetica,Arial,sans-serif" font-size="16" font-weight="600" letter-spacing="2.5" fill="#8b949e">STARS</text><g filter="url(#ng)"><g stroke="#b45cff" stroke-width="3" stroke-linejoin="round" stroke-linecap="round" fill="none"><path d="M466.0 38 h20 a4 4 0 0 1 4 4 v28 h-20 a4 4 0 0 0 -4 4 z"/><line x1="466.0" y1="70" x2="466.0" y2="38"/></g></g><text x="480.0" y="132" text-anchor="middle" font-family="'Segoe UI',system-ui,-apple-system,Helvetica,Arial,sans-serif" font-size="46" font-weight="800" fill="#ff4da6" filter="url(#ng)">20</text><text x="480.0" y="164" text-anchor="middle" font-family="'Segoe UI',system-ui,-apple-system,Helvetica,Arial,sans-serif" font-size="16" font-weight="600" letter-spacing="2.5" fill="#8b949e">REPOS</text><g filter="url(#ng)"><g stroke="#ff2e97" stroke-width="3" stroke-linecap="round" fill="none"><line x1="780.0" y1="54" x2="793.0" y2="54"/><line x1="807.0" y1="54" x2="820.0" y2="54"/><circle cx="800.0" cy="54" r="7"/></g></g><text x="800.0" y="132" text-anchor="middle" font-family="'Segoe UI',system-ui,-apple-system,Helvetica,Arial,sans-serif" font-size="46" font-weight="800" fill="#ff4da6" filter="url(#ng)">1,203</text><text x="800.0" y="164" text-anchor="middle" font-family="'Segoe UI',system-ui,-apple-system,Helvetica,Arial,sans-serif" font-size="16" font-weight="600" letter-spacing="2.5" fill="#8b949e">COMMITS</text><g filter="url(#ng)"><g stroke="#4f9dff" stroke-width="3" fill="#4f9dff" stroke-linecap="round"><circle cx="1107.0" cy="41" r="4.5"/><circle cx="1133.0" cy="41" r="4.5"/><circle cx="1120.0" cy="68" r="4.5"/><path fill="none" d="M1107.0 45 v4 a6 6 0 0 0 6 6 h14 a6 6 0 0 0 6 -6 v-4 M1120.0 56 v8"/></g></g><text x="1120.0" y="132" text-anchor="middle" font-family="'Segoe UI',system-ui,-apple-system,Helvetica,Arial,sans-serif" font-size="46" font-weight="800" fill="#ff4da6" filter="url(#ng)">185</text><text x="1120.0" y="164" text-anchor="middle" font-family="'Segoe UI',system-ui,-apple-system,Helvetica,Arial,sans-serif" font-size="16" font-weight="600" letter-spacing="2.5" fill="#8b949e">FORKS</text></svg>
